<svg width="30" height="30" viewBox="0 0 30 30" fill="none" xmlns="http://www.w3.org/2000/svg">
<g clip-path="url(#clip0_134:88)">
<path d="M30 15C30 23.2843 23.2843 30 15 30C6.71573 30 0 23.2843 0 15C0 6.71573 6.71573 0 15 0C23.2843 0 30 6.71573 30 15Z" fill="#2E3444"/>
<path d="M21.3675 5.21868C21.2197 5.22039 21.0644 5.22463 20.9049 5.23467C19.6289 5.31811 18.2161 5.70419 16.6626 6.39623C16.4408 6.3691 16.2199 6.35634 15.9981 6.35634C13.8625 6.35634 11.97 7.0067 10.3204 8.30742C8.67084 9.60874 7.5948 11.2687 7.09614 13.2887C8.48152 11.5461 10.0334 10.2583 11.7531 9.4291C11.5597 9.59462 11.1174 10.0383 10.4241 10.7581C9.23208 11.9205 8.19756 13.2138 7.32474 14.639C6.45066 16.0642 5.8276 17.3728 5.45344 18.5623C5.07865 19.7525 4.89258 20.8317 4.89258 21.7999C4.89258 22.7688 5.1128 23.4613 5.55711 23.8759C6.83252 25.1488 8.92648 25.0804 11.8382 23.6686C13.1414 24.3056 14.5287 24.6228 15.9981 24.6228C17.9662 24.6228 19.7409 24.0487 21.3223 22.9003C22.9023 21.7532 24.0112 20.2792 24.6502 18.48H19.6982C19.3379 19.1163 18.8461 19.6209 18.2229 19.995C17.5991 20.3679 16.9039 20.5532 16.1416 20.5532C15.3794 20.5532 14.6868 20.3679 14.063 19.995C13.4392 19.6215 12.9474 19.1171 12.5878 18.48C12.2812 17.8719 12.1279 17.2331 12.1279 16.5688V16.5289H20.1554H25.0649C25.092 16.2236 25.1074 15.8797 25.1074 15.4922C25.1074 13.8598 24.7045 12.3368 23.9006 10.923C24.7601 8.62623 24.6618 6.9361 23.6082 5.85662C23.147 5.42086 22.4015 5.2094 21.3675 5.21868ZM22.0532 6.34571C22.6845 6.34996 23.1747 6.53565 23.5258 6.89859C24.2185 7.59123 24.2466 8.79243 23.6082 10.5083C22.5546 8.90301 21.14 7.7428 19.3659 7.02355C20.441 6.56788 21.3378 6.34077 22.0532 6.34571ZM15.9768 10.5083C16.9887 10.5083 17.87 10.8635 18.619 11.5689C19.3673 12.2748 19.7675 13.1239 19.8231 14.1207H12.1279C12.1835 13.1239 12.5851 12.2748 13.3347 11.5689C14.083 10.8635 14.9637 10.5083 15.9768 10.5083ZM7.346 18.5623C8.09495 20.6113 9.39855 22.2017 11.2561 23.3362C9.11983 24.3045 7.65085 24.3889 6.84628 23.5862C5.93176 22.6729 6.0984 20.9981 7.346 18.5623Z" fill="white"/>
</g>
<defs>
<clipPath id="clip0_134:88">
<rect width="30" height="30" fill="white"/>
</clipPath>
</defs>
</svg>
