<svg width="40" height="40" viewBox="0 0 40 40" fill="none" xmlns="http://www.w3.org/2000/svg">
<path d="M20 40C31.0457 40 40 31.0457 40 20C40 8.9543 31.0457 0 20 0C8.9543 0 0 8.9543 0 20C0 31.0457 8.9543 40 20 40Z" fill="#E45128"/>
<path d="M32.4074 14.0172C32.586 13.4312 32.4074 13 31.5483 13H28.7054C27.9814 13 27.6484 13.3703 27.4698 13.7828C27.4698 13.7828 26.0218 17.2094 23.9753 19.4312C23.3141 20.0734 23.01 20.2797 22.648 20.2797C22.4694 20.2797 22.1943 20.0734 22.1943 19.4875V14.0172C22.1943 13.3141 21.9915 13 21.393 13H16.9236C16.4699 13 16.1996 13.3281 16.1996 13.6328C16.1996 14.2984 17.2228 14.4531 17.329 16.3281V20.3969C17.329 21.2875 17.1649 21.4516 16.8029 21.4516C15.8376 21.4516 13.4918 18.0109 12.1018 14.0734C11.8218 13.3094 11.5467 13 10.8179 13H7.97498C7.16411 13 7 13.3703 7 13.7828C7 14.5141 7.96533 18.1469 11.4936 22.9469C13.8442 26.2234 17.1553 28 20.1671 28C21.9771 28 22.1991 27.6063 22.1991 26.9266C22.1991 23.7953 22.035 23.5 22.9424 23.5C23.3623 23.5 24.0863 23.7063 25.7756 25.2859C27.7063 27.1609 28.0249 28 29.106 28H31.9489C32.7598 28 33.1701 27.6062 32.9336 26.8281C32.393 25.1922 28.7392 21.8266 28.5751 21.6016C28.1552 21.0766 28.2758 20.8422 28.5751 20.3734C28.5799 20.3688 32.0503 15.625 32.4074 14.0172Z" fill="white"/>
</svg>
