<svg width="40" height="40" viewBox="0 0 40 40" fill="none" xmlns="http://www.w3.org/2000/svg">
<path d="M20 40C31.0457 40 40 31.0457 40 20C40 8.9543 31.0457 0 20 0C8.9543 0 0 8.9543 0 20C0 31.0457 8.9543 40 20 40Z" fill="#E45128"/>
<path d="M20.0001 8.95996C13.9127 8.95996 8.96006 13.9126 8.96006 20C8.96006 21.9008 9.4511 23.7699 10.3823 25.4192L8.97782 30.4304C8.93174 30.595 8.97638 30.7716 9.09542 30.894C9.1871 30.9886 9.3119 31.04 9.44006 31.04C9.47846 31.04 9.51734 31.0352 9.55526 31.026L14.7853 29.7305C16.3823 30.5878 18.1809 31.04 20.0001 31.04C26.0874 31.04 31.0401 26.0873 31.0401 20C31.0401 13.9126 26.0874 8.95996 20.0001 8.95996ZM25.5537 23.8956C25.3175 24.5494 24.1847 25.146 23.6404 25.2262C23.1517 25.2977 22.5335 25.3284 21.8548 25.1153C21.4434 24.9857 20.9154 24.8139 20.2391 24.5254C17.3961 23.3129 15.5394 20.4862 15.3973 20.2995C15.2557 20.1128 14.2401 18.7822 14.2401 17.4051C14.2401 16.028 14.9721 15.3507 15.2322 15.0704C15.4924 14.79 15.7991 14.72 15.9882 14.72C16.1773 14.72 16.366 14.7224 16.5316 14.73C16.7058 14.7387 16.9396 14.6643 17.1695 15.2105C17.4057 15.7712 17.9725 17.1483 18.0426 17.2889C18.1137 17.4291 18.1607 17.5928 18.0666 17.7795C17.9725 17.9662 17.9255 18.0828 17.7834 18.2465C17.6413 18.4102 17.4858 18.6113 17.3581 18.7371C17.2161 18.8768 17.0687 19.028 17.2338 19.3083C17.3989 19.5886 17.9677 20.5049 18.8106 21.247C19.893 22.2003 20.8065 22.496 21.0897 22.6361C21.3729 22.7763 21.5385 22.7528 21.7036 22.566C21.8687 22.3788 22.4121 21.7486 22.6007 21.4688C22.7893 21.1889 22.9785 21.235 23.2386 21.3286C23.4988 21.4217 24.8922 22.0985 25.1754 22.2387C25.4586 22.3788 25.6477 22.4489 25.7188 22.5656C25.7898 22.6817 25.7898 23.2424 25.5537 23.8956Z" fill="white"/>
</svg>
