<svg width="40" height="40" viewBox="0 0 40 40" fill="none" xmlns="http://www.w3.org/2000/svg">
<path d="M20 40C31.0457 40 40 31.0457 40 20C40 8.9543 31.0457 0 20 0C8.9543 0 0 8.9543 0 20C0 31.0457 8.9543 40 20 40Z" fill="#E45128"/>
<path d="M30.067 13.3076C29.4672 13.4907 28.8418 13.6479 28.2155 13.8046C23.771 14.7473 17.8451 12.1884 15.2862 16.3635C13.152 19.6833 12.4782 23.8375 10.0505 26.8059L23.0179 39.7733C31.6484 38.4671 38.4689 31.6455 39.7738 23.0146L30.067 13.3076Z" fill="#E45128"/>
<path d="M26.6913 11.9009H13.3086C10.683 11.9009 8.55458 14.0294 8.55458 16.6549V23.3449C8.55458 25.9706 10.6831 28.099 13.3086 28.099H26.6913C29.3169 28.099 31.4454 25.9705 31.4454 23.3449V16.6549C31.4454 14.0294 29.3168 11.9009 26.6913 11.9009ZM23.4761 20.3254L17.2167 23.3107C17.0498 23.3903 16.8571 23.2688 16.8571 23.0841V16.9267C16.8571 16.7392 17.0549 16.6178 17.2219 16.7025L23.4813 19.8745C23.6677 19.9688 23.6643 20.2357 23.4761 20.3254Z" fill="white"/>
<path d="M26.6913 11.9009H19.8653V18.0419L23.4814 19.8743C23.6677 19.9687 23.6643 20.2356 23.476 20.3253L19.8653 22.0475V28.099H26.6913C29.3169 28.099 31.4453 25.9705 31.4453 23.3449V16.6549C31.4453 14.0294 29.3168 11.9009 26.6913 11.9009Z" fill="white"/>
</svg>
