<svg width="30" height="30" viewBox="0 0 30 30" fill="none" xmlns="http://www.w3.org/2000/svg">
<path d="M15 0C6.71556 0 0 6.71555 0 15C0 23.2844 6.71556 30 15 30C23.2844 30 30 23.2844 30 15C30 6.71555 23.2844 0 15 0ZM23.0615 20.6923C22.4214 21.0926 19.8201 21.2119 19.1903 20.7543C18.8449 20.5035 18.529 20.1896 18.2291 19.8906C18.0192 19.6817 17.781 19.5803 17.6006 19.3534C17.4534 19.1679 17.3524 18.9489 17.1974 18.7656C16.9358 18.4582 16.5331 18.1966 16.2147 18.5722C15.7351 19.1373 16.2901 20.2471 15.6506 20.6692C15.4361 20.8109 15.2197 20.8518 14.9516 20.8317L14.3579 20.8586C14.0092 20.8655 13.4568 20.8687 13.06 20.7972C12.6174 20.7173 12.2518 20.4755 11.8515 20.2981C11.0917 19.9611 10.3681 19.5019 9.81727 18.866C8.31824 17.134 6.30481 14.7521 5.52264 12.5745C5.36178 12.1271 4.93674 11.2409 5.33969 10.8571C5.88757 10.4591 8.57658 10.3469 8.9961 10.9624C9.16638 11.2126 9.27394 11.5785 9.3945 11.8622C9.54463 12.2158 9.62587 12.5489 9.86049 12.8618C10.0681 13.1393 10.2212 13.4184 10.3817 13.7226C10.5621 14.0641 10.7323 14.3917 10.9517 14.7059C11.1005 14.9197 11.494 15.3451 11.7426 15.3766C12.3497 15.4543 12.312 13.9793 12.2668 13.6193C12.2236 13.2722 12.2125 12.904 12.2239 12.5521C12.2336 12.2518 12.2606 11.8287 12.0829 11.5837C11.793 11.184 11.1473 11.483 11.0969 10.9458C11.2035 10.7934 11.1811 10.6583 11.8931 10.4236C12.454 10.2394 12.8163 10.2452 13.1861 10.2748C13.94 10.3352 14.7394 10.1312 15.4673 10.3755C16.1627 10.6098 16.0551 11.598 16.0317 12.1901C16.0002 12.9983 16.034 13.7873 16.0317 14.6078C16.0308 14.9812 16.0158 15.3448 16.4714 15.3142C16.8984 15.286 16.9419 14.9266 17.1457 14.6302C17.4291 14.2169 17.6893 13.7977 17.9779 13.3859C18.3669 12.8293 18.4845 12.2037 18.8507 11.6334C18.9817 11.4297 19.0945 10.9956 19.2963 10.8344C19.449 10.7119 19.7392 10.7759 19.9241 10.7759H20.3637C20.7001 10.7759 21.0432 10.7733 21.389 10.7853C21.8868 10.8025 22.4444 10.6881 22.938 10.758C25.0681 11.0586 20.2607 15.6122 20.5109 16.4253C20.6838 16.9868 21.7805 17.6143 22.1763 18.0741C22.7018 18.6866 24.3194 19.9042 23.0615 20.6923Z" fill="#2E3444"/>
</svg>
