<svg width="30" height="30" viewBox="0 0 30 30" fill="none" xmlns="http://www.w3.org/2000/svg">
<path d="M15 30C6.717 30 0 23.283 0 15C0 6.717 6.717 0 15 0C23.283 0 30 6.717 30 15C30 23.283 23.283 30 15 30Z" fill="#2E3444"/>
<path d="M24.546 10.173C24.318 9.30898 23.643 8.63098 22.785 8.39998C21.231 7.97998 15.003 7.97998 15.003 7.97998C15.003 7.97998 8.77201 7.97998 7.22101 8.39998C6.36301 8.63098 5.68801 9.30898 5.46001 10.173C5.04001 11.736 5.04001 15 5.04001 15C5.04001 15 5.04001 18.264 5.45701 19.827C5.68501 20.691 6.36001 21.369 7.21801 21.6C8.77201 22.02 15 22.02 15 22.02C15 22.02 21.231 22.02 22.782 21.6C23.64 21.369 24.315 20.691 24.543 19.827C24.96 18.264 24.96 15 24.96 15C24.96 15 24.96 11.736 24.546 10.173ZM12.963 17.961V12.039L18.168 15L12.963 17.961Z" fill="white"/>
</svg>
